<?xml version="1.0" standalone="no"?>
<!DOCTYPE svg PUBLIC "-//W3C//DTD SVG 20010904//EN"
 "http://www.w3.org/TR/2001/REC-SVG-20010904/DTD/svg10.dtd">
<svg version="1.0" xmlns="http://www.w3.org/2000/svg"
 width="512.000000pt" height="512.000000pt" viewBox="0 0 512.000000 512.000000"
 preserveAspectRatio="xMidYMid meet">

<g transform="translate(0.000000,512.000000) scale(0.100000,-0.100000)"
fill="#000000" stroke="none">
<path d="M2490 5093 c-24 -13 -67 -64 -149 -180 l-115 -163 -190 -61 c-114
-36 -200 -70 -214 -82 -53 -49 -68 -126 -34 -182 10 -16 67 -95 126 -175 l108
-145 -6 -180 c-6 -210 0 -248 47 -291 60 -56 88 -54 306 17 l191 63 194 -63
c218 -72 242 -73 302 -18 48 44 54 81 48 292 l-6 180 108 145 c59 80 116 159
126 175 34 56 19 133 -34 182 -14 12 -100 46 -214 82 l-190 61 -114 161 c-62
88 -124 168 -137 176 -37 25 -112 27 -153 6z m83 -395 c12 -34 131 -181 158
-197 17 -10 76 -33 130 -50 70 -22 97 -36 92 -44 -4 -7 -30 -43 -58 -82 -83
-112 -85 -118 -85 -255 0 -66 -4 -120 -9 -120 -5 0 -51 14 -103 31 -51 17
-113 32 -138 32 -25 0 -87 -15 -138 -32 -52 -17 -98 -31 -103 -31 -5 0 -9 54
-9 120 0 137 -2 142 -84 254 -29 39 -56 76 -59 83 -5 8 23 22 92 44 54 17 113
40 130 50 27 16 146 163 158 197 3 6 9 12 13 12 4 0 10 -6 13 -12z"/>
<path d="M723 4650 c-31 -18 -64 -59 -208 -261 -58 -80 -64 -85 -120 -102
-345 -107 -365 -116 -386 -187 -20 -66 -6 -97 121 -269 l120 -162 0 -207 c0
-188 2 -210 20 -239 25 -41 59 -63 107 -70 30 -4 82 10 227 58 l189 63 186
-62 c103 -34 199 -62 214 -62 47 0 105 36 127 80 19 37 21 57 20 241 l-2 200
59 79 c196 269 183 248 183 302 0 59 -20 98 -64 124 -17 10 -111 43 -209 74
l-178 57 -117 163 c-124 172 -154 200 -222 200 -19 0 -50 -9 -67 -20z m211
-568 c24 -26 54 -40 143 -68 62 -19 113 -38 113 -41 0 -3 -29 -45 -66 -94 -36
-48 -69 -103 -75 -121 -5 -18 -9 -83 -9 -144 l0 -112 -120 39 c-133 44 -135
44 -279 -6 -41 -14 -80 -25 -88 -25 -10 0 -13 29 -13 129 l0 129 -32 46 c-18
25 -52 72 -75 105 l-43 59 88 26 c150 45 162 54 242 165 l73 99 55 -76 c30
-42 69 -92 86 -110z"/>
<path d="M4260 4651 c-25 -13 -70 -67 -152 -181 l-117 -163 -178 -57 c-98 -31
-192 -64 -209 -74 -44 -26 -64 -65 -64 -124 0 -54 -13 -33 183 -302 l58 -79 0
-203 c-1 -193 0 -205 21 -242 26 -44 78 -76 123 -76 16 0 113 28 216 62 l187
62 184 -62 c101 -34 199 -62 218 -62 44 0 94 30 120 72 18 30 20 51 20 240 l0
207 120 162 c127 172 141 203 121 269 -21 71 -41 80 -386 187 -56 17 -62 22
-120 102 -188 263 -206 281 -275 281 -19 0 -51 -8 -70 -19z m147 -491 c77
-105 84 -110 235 -156 l88 -26 -43 -59 c-23 -33 -57 -80 -74 -105 l-33 -46 0
-129 c0 -100 -3 -129 -13 -129 -8 0 -47 11 -88 25 -144 50 -146 50 -279 6
l-120 -39 0 112 c0 61 -4 126 -9 144 -6 18 -39 73 -75 121 -37 49 -66 91 -66
94 0 3 51 22 114 41 127 40 135 47 231 183 28 39 53 68 56 65 3 -4 37 -50 76
-102z"/>
<path d="M2467 3339 c-387 -40 -703 -311 -809 -694 -31 -109 -36 -342 -10
-465 36 -175 117 -329 242 -463 34 -37 56 -67 49 -67 -8 0 -62 -20 -121 -44
-568 -232 -963 -800 -971 -1396 -2 -95 0 -108 21 -138 48 -67 -83 -62 1692
-62 1775 0 1644 -5 1692 62 21 30 23 43 21 138 -8 596 -403 1164 -971 1396
-59 24 -113 44 -121 44 -7 0 15 30 49 67 125 134 206 288 242 463 29 137 22
359 -15 480 -60 198 -143 328 -297 463 -179 158 -447 241 -693 216z m228 -304
c93 -19 217 -82 287 -145 77 -69 151 -182 185 -283 24 -73 27 -97 27 -217 0
-153 -12 -208 -72 -325 -46 -89 -162 -208 -252 -258 -188 -104 -432 -104 -620
0 -90 50 -206 169 -252 258 -60 117 -72 172 -72 325 0 120 3 144 27 217 54
162 172 300 322 374 133 66 275 84 420 54z m200 -1620 c409 -66 749 -308 940
-668 67 -125 135 -337 135 -419 l0 -28 -1410 0 -1410 0 0 28 c0 15 9 65 21
112 122 511 524 887 1044 974 115 20 562 20 680 1z"/>
</g>
</svg>
